<svg width="30" height="30" viewBox="0 0 30 30" fill="none" xmlns="http://www.w3.org/2000/svg">
<path fill-rule="evenodd" clip-rule="evenodd" d="M15.0472 11C16.7041 11 18.0472 9.65685 18.0472 8C18.0472 6.34315 16.7041 5 15.0472 5C13.3904 5 12.0472 6.34315 12.0472 8C12.0472 9.65685 13.3904 11 15.0472 11ZM15.0472 13C17.8087 13 20.0472 10.7614 20.0472 8C20.0472 5.23858 17.8087 3 15.0472 3C12.2858 3 10.0472 5.23858 10.0472 8C10.0472 10.7614 12.2858 13 15.0472 13Z" fill="#777777"/>
<path fill-rule="evenodd" clip-rule="evenodd" d="M8.16683 17.6481C9.55929 15.6501 11.7742 14 15.0472 14C18.3203 14 20.5352 15.6501 21.9277 17.6481C23.2952 19.6104 23.8976 21.9333 24.0429 23.4936L24.1003 24.1096L23.5747 24.436C16.0968 29.0791 9.08387 26.3874 6.44272 24.383L6 24.047L6.05156 23.4936C6.19694 21.9333 6.79933 19.6104 8.16683 17.6481ZM8.11507 23.1127C10.5226 24.663 16.0034 26.463 21.9714 23.0632C21.7645 21.8042 21.2467 20.169 20.2868 18.7917C19.186 17.212 17.5342 16 15.0472 16C12.5603 16 10.9085 17.212 9.80766 18.7917C8.83516 20.1871 8.31649 21.8473 8.11507 23.1127Z" fill="#777777"/>
</svg>
