<svg width="30" height="30" viewBox="0 0 30 30" fill="none" xmlns="http://www.w3.org/2000/svg">
<path fill-rule="evenodd" clip-rule="evenodd" d="M6.71367 10.1912C6.77142 9.66183 7.21849 9.26087 7.75099 9.26087H23.1186C23.6511 9.26087 24.0982 9.66183 24.1559 10.1912L25.8634 25.8434C25.8956 26.1381 25.8008 26.4325 25.6029 26.6532C25.405 26.8739 25.1225 27 24.8261 27H6.04348C5.74704 27 5.46458 26.8739 5.26665 26.6532C5.06873 26.4325 4.97401 26.1381 5.00616 25.8434L6.71367 10.1912ZM8.68683 11.3478L7.20699 24.913H23.6626L22.1827 11.3478H8.68683Z" fill="#777777"/>
<path fill-rule="evenodd" clip-rule="evenodd" d="M13.791 5.8662C13.4677 6.33774 13.3478 6.93964 13.3478 7.33043V13.4348C13.3478 14.0111 12.8807 14.4783 12.3044 14.4783C11.7281 14.4783 11.2609 14.0111 11.2609 13.4348V7.33043C11.2609 6.62557 11.4541 5.584 12.0699 4.68597C12.7236 3.73259 13.8206 3 15.4348 3C17.049 3 18.146 3.73259 18.7997 4.68597C19.4155 5.584 19.6087 6.62557 19.6087 7.33043V13.4348C19.6087 14.0111 19.1415 14.4783 18.5652 14.4783C17.9889 14.4783 17.5217 14.0111 17.5217 13.4348V7.33043C17.5217 6.93964 17.4019 6.33774 17.0785 5.8662C16.7932 5.45002 16.3249 5.08696 15.4348 5.08696C14.5447 5.08696 14.0764 5.45002 13.791 5.8662Z" fill="#777777"/>
</svg>
